<svg width="24" height="24" viewBox="0 0 24 24" fill="none" xmlns="http://www.w3.org/2000/svg">
<path fill-rule="evenodd" clip-rule="evenodd" d="M16.0189 10.6787L13.3239 7.98367L15.2719 6.03467L17.9659 8.72867L16.0189 10.6787ZM9.0799 17.6247L6.1029 17.8957L6.3669 14.9397L11.9839 9.32267L14.6799 12.0187L9.0799 17.6247ZM19.4039 7.33767L19.4029 7.33667L16.6649 4.59867C15.9239 3.85967 14.6509 3.82467 13.9489 4.52967L4.9529 13.5257C4.6269 13.8507 4.4249 14.2827 4.3829 14.7397L4.0039 18.9097C3.9779 19.2047 4.0829 19.4967 4.2929 19.7067C4.4819 19.8957 4.7369 19.9997 4.9999 19.9997C5.0309 19.9997 5.0609 19.9987 5.0909 19.9957L9.2609 19.6167C9.7189 19.5747 10.1499 19.3737 10.4749 19.0487L19.4719 10.0517C20.1999 9.32167 20.1689 8.10367 19.4039 7.33767Z" fill="white"/>
<mask id="mask0_182_302" style="mask-type:luminance" maskUnits="userSpaceOnUse" x="4" y="4" width="16" height="16">
<path fill-rule="evenodd" clip-rule="evenodd" d="M16.0189 10.6787L13.3239 7.98367L15.2719 6.03467L17.9659 8.72867L16.0189 10.6787ZM9.0799 17.6247L6.1029 17.8957L6.3669 14.9397L11.9839 9.32267L14.6799 12.0187L9.0799 17.6247ZM19.4039 7.33767L19.4029 7.33667L16.6649 4.59867C15.9239 3.85967 14.6509 3.82467 13.9489 4.52967L4.9529 13.5257C4.6269 13.8507 4.4249 14.2827 4.3829 14.7397L4.0039 18.9097C3.9779 19.2047 4.0829 19.4967 4.2929 19.7067C4.4819 19.8957 4.7369 19.9997 4.9999 19.9997C5.0309 19.9997 5.0609 19.9987 5.0909 19.9957L9.2609 19.6167C9.7189 19.5747 10.1499 19.3737 10.4749 19.0487L19.4719 10.0517C20.1999 9.32167 20.1689 8.10367 19.4039 7.33767Z" fill="white"/>
</mask>
<g mask="url(#mask0_182_302)">
</g>
</svg>
