<svg width="44" height="24" viewBox="0 0 44 24" fill="none" xmlns="http://www.w3.org/2000/svg">
<path fill-rule="evenodd" clip-rule="evenodd" d="M42.8475 21.0825C42.7157 22.1649 41.8374 23 40.7725 23H4.05975C2.90259 23 1.96753 22.0155 1.96753 20.801V3.17216C1.96753 2.07423 2.73221 1.16495 3.73218 1H41.0991C42.0118 1.15052 42.7299 1.92165 42.8475 2.89072V21.0825ZM6.65804 5.3433V18.6784H9.94698V5.3433H6.65804ZM16.962 5.3433L16.2003 11.5732L15.7287 8.18557C15.6108 7.2363 15.4796 6.28878 15.3352 5.3433H11.0707V18.6784H13.9509L13.961 9.87423L15.174 18.6784H17.2256L18.3767 9.67732L18.3869 18.6784H21.258V5.3433H16.962ZM26.6513 8.11649C26.6878 8.2866 26.7061 8.6732 26.7061 9.27629V14.4464C26.7061 15.333 26.6513 15.8773 26.5428 16.0773C26.4332 16.2773 26.1422 16.3773 25.6696 16.3773V7.62474C26.0276 7.62474 26.272 7.66392 26.4018 7.7433C26.5316 7.82268 26.6148 7.94742 26.6513 8.11649ZM28.137 18.5433C28.5285 18.4526 28.8571 18.2938 29.1238 18.066C29.3895 17.8392 29.5761 17.5237 29.6836 17.1196C29.7901 16.7175 29.854 15.9175 29.854 14.7227V10.0392C29.854 8.77835 29.8074 7.93196 29.7344 7.50206C29.6598 7.06808 29.4705 6.6629 29.1867 6.3299C28.8936 5.97938 28.4666 5.7268 27.9058 5.5732C27.345 5.41959 26.4292 5.3433 24.8369 5.3433H22.3827V18.6784H26.3683C27.1563 18.6784 27.7456 18.633 28.137 18.5433ZM35.1611 16.6649C35.1003 16.8351 34.8356 16.9206 34.6338 16.9206C34.438 16.9206 34.3082 16.8381 34.2413 16.6742C34.1754 16.5093 34.1429 16.135 34.1429 15.5505V12.0247C34.1429 11.4175 34.1713 11.0392 34.2301 10.8887C34.288 10.7381 34.4147 10.6619 34.6105 10.6619C34.8113 10.6619 35.08 10.7485 35.149 10.9206C35.2179 11.0928 35.2524 11.4619 35.2524 12.0247V15.4423C35.2524 16.0876 35.222 16.4959 35.1611 16.6649ZM30.9747 18.6784H33.936L34.1399 17.8289C34.4076 18.1701 34.7038 18.4268 35.0263 18.5969C35.3488 18.768 35.8315 18.8536 36.2047 18.8536C36.724 18.8536 37.1733 18.7093 37.5515 18.4216C37.9288 18.1351 38.1702 17.7948 38.2716 17.4031C38.374 17.0113 38.4257 16.4165 38.4257 15.6165V11.8753C38.4257 11.0701 38.4085 10.5454 38.375 10.2979C38.3305 10.0261 38.2265 9.76787 38.0708 9.54227C37.8897 9.27442 37.6355 9.06623 37.3396 8.9433C37.0191 8.8 36.6418 8.72887 36.2057 8.72887C35.8274 8.72887 35.3437 8.80825 35.0202 8.96598C34.6804 9.13685 34.3811 9.38059 34.1429 9.68041V5.3433H30.9747V18.6784Z" fill="white"/>
</svg>
